<svg width="426.9875px" height="122px" xmlns="http://www.w3.org/2000/svg" viewBox="36.506249999999994 14 426.9875 122" style="background: rgb(253, 253, 253);" preserveAspectRatio="xMidYMid"><defs><filter id="editing-extrusion" x="-100%" y="-100%" width="300%" height="300%"><feFlood result="color1" flood-color="#415e75"></feFlood><feConvolveMatrix order="4,4" divisor="1" kernelMatrix="1 0 0 0 0 1 0 0 0 0 1 0 0 0 0 1" in="SourceAlpha" result="extrude"></feConvolveMatrix><feComposite in="color1" in2="extrude" result="comp-extrude" operator="in"></feComposite><feOffset dx="2" dy="2" in="comp-extrude" result="offset-extrude"></feOffset><feMerge><feMergeNode in="offset-extrude"></feMergeNode><feMergeNode in="SourceGraphic"></feMergeNode></feMerge></filter></defs><g filter="url(#editing-extrusion)"><g transform="translate(101.419992685318, 104.44000053405762)"><path d="M0.26-3.07L0.26-3.07L8.19-44.80L21.18-46.08L19.20-36.29L19.20-36.29Q18.50-33.28 17.60-31.17L17.60-31.17L17.60-31.17Q19.01-32.96 22.08-33.66L22.08-33.66L22.08-33.66Q22.98-33.92 24.06-33.92L24.06-33.92L24.06-33.92Q30.02-33.92 33.28-30.30L33.28-30.30L33.28-30.30Q36.54-26.69 36.54-19.71L36.54-19.71L36.54-19.71Q36.54-10.62 31.36-4.93L31.36-4.93L31.36-4.93Q25.79 1.28 15.68 1.28L15.68 1.28L15.68 1.28Q8.70 1.28 3.46-1.02L3.46-1.02L3.46-1.02Q1.60-1.86 0.26-3.07ZM16.51-22.40L13.12-3.65L13.12-3.65Q14.46-2.50 16.13-2.50L16.13-2.50L16.13-2.50Q17.79-2.50 18.75-3.14L18.75-3.14L18.75-3.14Q19.71-3.78 20.42-5.06L20.42-5.06L20.42-5.06Q22.34-8.51 23.87-19.07L23.87-19.07L23.87-19.07Q24.32-22.08 24.32-25.09L24.32-25.09L24.32-25.09Q24.32-28.10 23.65-29.06L23.65-29.06L23.65-29.06Q22.98-30.02 21.70-30.02L21.70-30.02L21.70-30.02Q17.79-30.02 16.51-22.40L16.51-22.40ZM66.30-10.82L66.30-10.82L66.30-10.82Q67.90-9.73 67.90-7.33L67.90-7.33L67.90-7.33Q67.90-4.93 66.69-3.39L66.69-3.39L66.69-3.39Q65.47-1.86 63.49-0.83L63.49-0.83L63.49-0.83Q59.39 1.28 54.98 1.28L54.98 1.28L54.98 1.28Q50.56 1.28 47.97 0.32L47.97 0.32L47.97 0.32Q45.38-0.64 43.65-2.43L43.65-2.43L43.65-2.43Q40.26-5.82 40.26-12.03L40.26-12.03L40.26-12.03Q40.26-21.70 45.50-27.58L45.50-27.58L45.50-27.58Q51.14-33.92 60.93-33.92L60.93-33.92L60.93-33.92Q67.01-33.92 70.02-31.36L70.02-31.36L70.02-31.36Q72.26-29.44 72.26-26.30L72.26-26.30L72.26-26.30Q72.26-15.04 52.80-15.04L52.80-15.04L52.80-15.04Q52.54-13.38 52.54-11.97L52.54-11.97L52.54-11.97Q52.54-9.02 53.86-7.90L53.86-7.90L53.86-7.90Q55.17-6.78 57.60-6.78L57.60-6.78L57.60-6.78Q60.03-6.78 62.62-7.90L62.62-7.90L62.62-7.90Q65.22-9.02 66.30-10.82ZM53.25-17.79L53.25-17.79L53.25-17.79Q57.79-17.79 60.42-20.61L60.42-20.61L60.42-20.61Q63.04-23.30 63.04-27.58L63.04-27.58L63.04-27.58Q63.04-29.06 62.50-29.86L62.50-29.86L62.50-29.86Q61.95-30.66 60.86-30.66L60.86-30.66L60.86-30.66Q59.78-30.66 58.85-30.24L58.85-30.24L58.85-30.24Q57.92-29.82 56.96-28.42L56.96-28.42L56.96-28.42Q54.59-25.22 53.25-17.79ZM73.60-3.07L73.60-3.07L81.54-44.80L94.53-46.08L92.54-36.29L92.54-36.29Q91.84-33.28 90.94-31.17L90.94-31.17L90.94-31.17Q92.35-32.96 95.42-33.66L95.42-33.66L95.42-33.66Q96.32-33.92 97.41-33.92L97.41-33.92L97.41-33.92Q103.36-33.92 106.62-30.30L106.62-30.30L106.62-30.30Q109.89-26.69 109.89-19.71L109.89-19.71L109.89-19.71Q109.89-10.62 104.70-4.93L104.70-4.93L104.70-4.93Q99.14 1.28 89.02 1.28L89.02 1.28L89.02 1.28Q82.05 1.28 76.80-1.02L76.80-1.02L76.80-1.02Q74.94-1.86 73.60-3.07ZM89.86-22.40L86.46-3.65L86.46-3.65Q87.81-2.50 89.47-2.50L89.47-2.50L89.47-2.50Q91.14-2.50 92.10-3.14L92.10-3.14L92.10-3.14Q93.06-3.78 93.76-5.06L93.76-5.06L93.76-5.06Q95.68-8.51 97.22-19.07L97.22-19.07L97.22-19.07Q97.66-22.08 97.66-25.09L97.66-25.09L97.66-25.09Q97.66-28.10 96.99-29.06L96.99-29.06L96.99-29.06Q96.32-30.02 95.04-30.02L95.04-30.02L95.04-30.02Q91.14-30.02 89.86-22.40L89.86-22.40ZM139.65-10.82L139.65-10.82L139.65-10.82Q141.25-9.73 141.25-7.33L141.25-7.33L141.25-7.33Q141.25-4.93 140.03-3.39L140.03-3.39L140.03-3.39Q138.82-1.86 136.83-0.83L136.83-0.83L136.83-0.83Q132.74 1.28 128.32 1.28L128.32 1.28L128.32 1.28Q123.90 1.28 121.31 0.32L121.31 0.32L121.31 0.32Q118.72-0.64 116.99-2.43L116.99-2.43L116.99-2.43Q113.60-5.82 113.60-12.03L113.60-12.03L113.60-12.03Q113.60-21.70 118.85-27.58L118.85-27.58L118.85-27.58Q124.48-33.92 134.27-33.92L134.27-33.92L134.27-33.92Q140.35-33.92 143.36-31.36L143.36-31.36L143.36-31.36Q145.60-29.44 145.60-26.30L145.60-26.30L145.60-26.30Q145.60-15.04 126.14-15.04L126.14-15.04L126.14-15.04Q125.89-13.38 125.89-11.97L125.89-11.97L125.89-11.97Q125.89-9.02 127.20-7.90L127.20-7.90L127.20-7.90Q128.51-6.78 130.94-6.78L130.94-6.78L130.94-6.78Q133.38-6.78 135.97-7.90L135.97-7.90L135.97-7.90Q138.56-9.02 139.65-10.82ZM126.59-17.79L126.59-17.79L126.59-17.79Q131.14-17.79 133.76-20.61L133.76-20.61L133.76-20.61Q136.38-23.30 136.38-27.58L136.38-27.58L136.38-27.58Q136.38-29.06 135.84-29.86L135.84-29.86L135.84-29.86Q135.30-30.66 134.21-30.66L134.21-30.66L134.21-30.66Q133.12-30.66 132.19-30.24L132.19-30.24L132.19-30.24Q131.26-29.82 130.30-28.42L130.30-28.42L130.30-28.42Q127.94-25.22 126.59-17.79ZM177.60-4.38L177.60-4.38L177.60-4.38Q174.91-1.66 171.23-0.19L171.23-0.19L171.23-0.19Q167.55 1.28 163.90 1.28L163.90 1.28L163.90 1.28Q160.26 1.28 158.98 0.64L158.98 0.64L156.99 11.52L144 12.80L152.83-32.64L163.26-33.73L162.43-29.31L162.43-29.31Q165.12-33.86 170.69-33.86L170.69-33.86L170.69-33.86Q176.96-33.86 180.29-29.82L180.29-29.82L180.29-29.82Q183.23-26.18 183.23-20.61L183.23-20.61L183.23-20.61Q183.23-15.04 181.76-11.07L181.76-11.07L181.76-11.07Q180.29-7.10 177.60-4.38ZM163.14-22.34L159.74-3.58L159.74-3.58Q161.09-2.43 162.75-2.43L162.75-2.43L162.75-2.43Q164.42-2.43 165.38-3.07L165.38-3.07L165.38-3.07Q166.34-3.71 167.04-4.99L167.04-4.99L167.04-4.99Q168.96-8.45 170.50-18.94L170.50-18.94L170.50-18.94Q170.94-22.02 170.94-25.02L170.94-25.02L170.94-25.02Q170.94-28.03 170.27-28.99L170.27-28.99L170.27-28.99Q169.60-29.95 168.32-29.95L168.32-29.95L168.32-29.95Q164.42-29.95 163.14-22.34L163.14-22.34ZM189.86-1.92L189.86-1.92L189.86-1.92Q188.35-3.58 187.68-6.21L187.68-6.21L187.68-6.21Q187.01-8.83 187.01-13.12L187.01-13.12L187.01-13.12Q187.01-17.41 188.48-21.31L188.48-21.31L188.48-21.31Q189.95-25.22 192.64-28.03L192.64-28.03L192.64-28.03Q198.14-33.92 207.23-33.92L207.23-33.92L207.23-33.92Q210.50-33.92 212.86-32.83L212.86-32.83L223.81-33.92L219.07-8.96L219.07-8.96Q218.88-8.19 218.88-6.78L218.88-6.78L218.88-6.78Q218.88-5.38 219.74-4.48L219.74-4.48L219.74-4.48Q220.61-3.58 221.89-3.46L221.89-3.46L221.89-3.46Q221.25-1.28 218.91 0L218.91 0L218.91 0Q216.58 1.28 213.95 1.28L213.95 1.28L213.95 1.28Q211.33 1.28 209.57 0.29L209.57 0.29L209.57 0.29Q207.81-0.70 207.30-2.37L207.30-2.37L207.30-2.37Q206.27-0.77 204.10 0.26L204.10 0.26L204.10 0.26Q201.92 1.28 199.01 1.28L199.01 1.28L199.01 1.28Q196.10 1.28 193.73 0.51L193.73 0.51L193.73 0.51Q191.36-0.26 189.86-1.92ZM203.36-27.90L203.36-27.90L203.36-27.90Q202.62-26.75 201.98-24.80L201.98-24.80L201.98-24.80Q201.34-22.85 200.29-17.63L200.29-17.63L200.29-17.63Q199.23-12.42 199.23-8.70L199.23-8.70L199.23-8.70Q199.23-4.99 199.81-3.90L199.81-3.90L199.81-3.90Q200.38-2.82 201.41-2.82L201.41-2.82L201.41-2.82Q203.46-2.82 204.96-4.77L204.96-4.77L204.96-4.77Q206.46-6.72 207.04-10.18L207.04-10.18L210.43-28.93L210.43-28.93Q209.09-30.08 207.52-30.08L207.52-30.08L207.52-30.08Q205.95-30.08 205.02-29.57L205.02-29.57L205.02-29.57Q204.10-29.06 203.36-27.90ZM258.43-26.62L258.43-26.62L258.43-26.62Q258.43-23.94 256.19-22.27L256.19-22.27L256.19-22.27Q253.95-20.61 250.30-20.61L250.30-20.61L250.30-20.61Q248.77-20.61 247.87-21.06L247.87-21.06L247.87-21.06Q248.58-22.72 248.80-24.80L248.80-24.80L248.80-24.80Q249.02-26.88 249.02-27.46L249.02-27.46L249.02-27.46Q249.02-30.14 247.17-30.14L247.17-30.14L247.17-30.14Q245.89-30.14 244.45-28.54L244.45-28.54L244.45-28.54Q243.01-26.94 241.79-24.45L241.79-24.45L241.79-24.45Q239.10-18.69 239.10-12.86L239.10-12.86L239.10-12.86Q239.10-9.66 240.32-8.22L240.32-8.22L240.32-8.22Q241.54-6.78 244.22-6.78L244.22-6.78L244.22-6.78Q247.94-6.78 250.88-9.86L250.88-9.86L250.88-9.86Q251.71-10.82 252.16-11.90L252.16-11.90L252.16-11.90Q254.59-10.62 254.59-7.10L254.59-7.10L254.59-7.10Q254.59-3.52 250.62-1.15L250.62-1.15L250.62-1.15Q246.53 1.28 240 1.28L240 1.28L240 1.28Q227.01 1.28 227.01-12.48L227.01-12.48L227.01-12.48Q227.01-22.53 232.70-28.29L232.70-28.29L232.70-28.29Q238.21-33.92 248.32-33.92L248.32-33.92L248.32-33.92Q258.43-33.92 258.43-26.62ZM262.94-1.92L262.94-1.92L262.94-1.92Q261.44-3.58 260.77-6.21L260.77-6.21L260.77-6.21Q260.10-8.83 260.10-13.12L260.10-13.12L260.10-13.12Q260.10-17.41 261.57-21.31L261.57-21.31L261.57-21.31Q263.04-25.22 265.73-28.03L265.73-28.03L265.73-28.03Q271.23-33.92 280.32-33.92L280.32-33.92L280.32-33.92Q283.58-33.92 285.95-32.83L285.95-32.83L296.90-33.92L292.16-8.96L292.16-8.96Q291.97-8.19 291.97-6.78L291.97-6.78L291.97-6.78Q291.97-5.38 292.83-4.48L292.83-4.48L292.83-4.48Q293.70-3.58 294.98-3.46L294.98-3.46L294.98-3.46Q294.34-1.28 292 0L292 0L292 0Q289.66 1.28 287.04 1.28L287.04 1.28L287.04 1.28Q284.42 1.28 282.66 0.29L282.66 0.29L282.66 0.29Q280.90-0.70 280.38-2.37L280.38-2.37L280.38-2.37Q279.36-0.77 277.18 0.26L277.18 0.26L277.18 0.26Q275.01 1.28 272.10 1.28L272.10 1.28L272.10 1.28Q269.18 1.28 266.82 0.51L266.82 0.51L266.82 0.51Q264.45-0.26 262.94-1.92ZM276.45-27.90L276.45-27.90L276.45-27.90Q275.71-26.75 275.07-24.80L275.07-24.80L275.07-24.80Q274.43-22.85 273.38-17.63L273.38-17.63L273.38-17.63Q272.32-12.42 272.32-8.70L272.32-8.70L272.32-8.70Q272.32-4.99 272.90-3.90L272.90-3.90L272.90-3.90Q273.47-2.82 274.50-2.82L274.50-2.82L274.50-2.82Q276.54-2.82 278.05-4.77L278.05-4.77L278.05-4.77Q279.55-6.72 280.13-10.18L280.13-10.18L283.52-28.93L283.52-28.93Q282.18-30.08 280.61-30.08L280.61-30.08L280.61-30.08Q279.04-30.08 278.11-29.57L278.11-29.57L278.11-29.57Q277.18-29.06 276.45-27.90Z" fill="#26bfdd"></path></g></g><style>text {
  font-size: 64px;
  font-family: Arial Black;
  dominant-baseline: central;
  text-anchor: middle;
}</style></svg>